<mxfile host="app.diagrams.net" agent="Mozilla/5.0 (Windows NT 10.0; Win64; x64) AppleWebKit/537.36 (KHTML, like Gecko) Chrome/126.0.0.0 Safari/537.36 AVG/126.0.0.0" version="24.7.7">
  <diagram name="Page-1" id="jC9QU2Pb6PeztLgpICCN">
    <mxGraphModel dx="1222" dy="646" grid="1" gridSize="10" guides="1" tooltips="1" connect="1" arrows="1" fold="1" page="1" pageScale="1" pageWidth="850" pageHeight="1100" math="0" shadow="0">
      <root>
        <mxCell id="0" />
        <mxCell id="1" parent="0" />
        <mxCell id="ODy3n680bHS0tX1lZsI_-1" value="Switch" style="rounded=0;whiteSpace=wrap;html=1;" vertex="1" parent="1">
          <mxGeometry x="208" y="230" width="105" height="30" as="geometry" />
        </mxCell>
        <mxCell id="ODy3n680bHS0tX1lZsI_-2" value="Router" style="ellipse;whiteSpace=wrap;html=1;aspect=fixed;" vertex="1" parent="1">
          <mxGeometry x="382" y="13" width="70" height="70" as="geometry" />
        </mxCell>
        <mxCell id="ODy3n680bHS0tX1lZsI_-3" value="PC1" style="whiteSpace=wrap;html=1;aspect=fixed;" vertex="1" parent="1">
          <mxGeometry x="60" y="168" width="60" height="60" as="geometry" />
        </mxCell>
        <mxCell id="ODy3n680bHS0tX1lZsI_-4" value="PC2" style="whiteSpace=wrap;html=1;aspect=fixed;" vertex="1" parent="1">
          <mxGeometry x="40" y="270" width="60" height="60" as="geometry" />
        </mxCell>
        <mxCell id="ODy3n680bHS0tX1lZsI_-5" value="PC3" style="whiteSpace=wrap;html=1;aspect=fixed;" vertex="1" parent="1">
          <mxGeometry x="130" y="330" width="60" height="60" as="geometry" />
        </mxCell>
        <mxCell id="ODy3n680bHS0tX1lZsI_-6" value="PC4" style="whiteSpace=wrap;html=1;aspect=fixed;" vertex="1" parent="1">
          <mxGeometry x="240" y="330" width="60" height="60" as="geometry" />
        </mxCell>
        <mxCell id="ODy3n680bHS0tX1lZsI_-12" value="Created on 14 August 2024 by&lt;div&gt;Sohel Rana&lt;/div&gt;" style="text;html=1;align=center;verticalAlign=middle;resizable=0;points=[];autosize=1;strokeColor=none;fillColor=none;" vertex="1" parent="1">
          <mxGeometry x="315" y="450" width="190" height="40" as="geometry" />
        </mxCell>
        <mxCell id="ODy3n680bHS0tX1lZsI_-13" value="Switch" style="rounded=0;whiteSpace=wrap;html=1;" vertex="1" parent="1">
          <mxGeometry x="506" y="230" width="105" height="30" as="geometry" />
        </mxCell>
        <mxCell id="ODy3n680bHS0tX1lZsI_-14" value="Switch" style="rounded=0;whiteSpace=wrap;html=1;" vertex="1" parent="1">
          <mxGeometry x="364" y="138" width="105" height="30" as="geometry" />
        </mxCell>
        <mxCell id="ODy3n680bHS0tX1lZsI_-16" value="PC5" style="whiteSpace=wrap;html=1;aspect=fixed;" vertex="1" parent="1">
          <mxGeometry x="700" y="170" width="60" height="60" as="geometry" />
        </mxCell>
        <mxCell id="ODy3n680bHS0tX1lZsI_-17" value="PC6" style="whiteSpace=wrap;html=1;aspect=fixed;" vertex="1" parent="1">
          <mxGeometry x="750" y="270" width="60" height="60" as="geometry" />
        </mxCell>
        <mxCell id="ODy3n680bHS0tX1lZsI_-18" value="PC7" style="whiteSpace=wrap;html=1;aspect=fixed;" vertex="1" parent="1">
          <mxGeometry x="650" y="330" width="60" height="60" as="geometry" />
        </mxCell>
        <mxCell id="ODy3n680bHS0tX1lZsI_-19" value="PC8" style="whiteSpace=wrap;html=1;aspect=fixed;" vertex="1" parent="1">
          <mxGeometry x="528.5" y="340" width="60" height="60" as="geometry" />
        </mxCell>
        <mxCell id="ODy3n680bHS0tX1lZsI_-20" value="" style="endArrow=none;html=1;rounded=0;exitX=1;exitY=0.5;exitDx=0;exitDy=0;entryX=0.082;entryY=-0.107;entryDx=0;entryDy=0;entryPerimeter=0;" edge="1" parent="1">
          <mxGeometry width="50" height="50" relative="1" as="geometry">
            <mxPoint x="120" y="201" as="sourcePoint" />
            <mxPoint x="216.61" y="229.78999999999996" as="targetPoint" />
          </mxGeometry>
        </mxCell>
        <mxCell id="ODy3n680bHS0tX1lZsI_-22" value="" style="endArrow=none;html=1;rounded=0;exitX=1;exitY=0.5;exitDx=0;exitDy=0;entryX=0;entryY=0.5;entryDx=0;entryDy=0;" edge="1" parent="1" source="ODy3n680bHS0tX1lZsI_-4" target="ODy3n680bHS0tX1lZsI_-1">
          <mxGeometry width="50" height="50" relative="1" as="geometry">
            <mxPoint x="200" y="300" as="sourcePoint" />
            <mxPoint x="250" y="250" as="targetPoint" />
          </mxGeometry>
        </mxCell>
        <mxCell id="ODy3n680bHS0tX1lZsI_-23" value="" style="endArrow=none;html=1;rounded=0;exitX=0.5;exitY=0;exitDx=0;exitDy=0;entryX=0.25;entryY=1;entryDx=0;entryDy=0;" edge="1" parent="1" source="ODy3n680bHS0tX1lZsI_-5" target="ODy3n680bHS0tX1lZsI_-1">
          <mxGeometry width="50" height="50" relative="1" as="geometry">
            <mxPoint x="200" y="300" as="sourcePoint" />
            <mxPoint x="250" y="250" as="targetPoint" />
          </mxGeometry>
        </mxCell>
        <mxCell id="ODy3n680bHS0tX1lZsI_-24" value="" style="endArrow=none;html=1;rounded=0;exitX=0.363;exitY=-0.08;exitDx=0;exitDy=0;exitPerimeter=0;entryX=0.5;entryY=1;entryDx=0;entryDy=0;" edge="1" parent="1" source="ODy3n680bHS0tX1lZsI_-6" target="ODy3n680bHS0tX1lZsI_-1">
          <mxGeometry width="50" height="50" relative="1" as="geometry">
            <mxPoint x="200" y="300" as="sourcePoint" />
            <mxPoint x="250" y="250" as="targetPoint" />
          </mxGeometry>
        </mxCell>
        <mxCell id="ODy3n680bHS0tX1lZsI_-25" value="" style="endArrow=none;html=1;rounded=0;exitX=0.75;exitY=0;exitDx=0;exitDy=0;" edge="1" parent="1" source="ODy3n680bHS0tX1lZsI_-13">
          <mxGeometry width="50" height="50" relative="1" as="geometry">
            <mxPoint x="650" y="260" as="sourcePoint" />
            <mxPoint x="700" y="210" as="targetPoint" />
          </mxGeometry>
        </mxCell>
        <mxCell id="ODy3n680bHS0tX1lZsI_-26" value="" style="endArrow=none;html=1;rounded=0;exitX=1;exitY=0.5;exitDx=0;exitDy=0;" edge="1" parent="1" source="ODy3n680bHS0tX1lZsI_-13" target="ODy3n680bHS0tX1lZsI_-17">
          <mxGeometry width="50" height="50" relative="1" as="geometry">
            <mxPoint x="650" y="260" as="sourcePoint" />
            <mxPoint x="700" y="210" as="targetPoint" />
          </mxGeometry>
        </mxCell>
        <mxCell id="ODy3n680bHS0tX1lZsI_-27" value="" style="endArrow=none;html=1;rounded=0;entryX=0.909;entryY=1.053;entryDx=0;entryDy=0;entryPerimeter=0;exitX=0.5;exitY=0;exitDx=0;exitDy=0;" edge="1" parent="1">
          <mxGeometry width="50" height="50" relative="1" as="geometry">
            <mxPoint x="680" y="329" as="sourcePoint" />
            <mxPoint x="601.4450000000002" y="260.5899999999999" as="targetPoint" />
          </mxGeometry>
        </mxCell>
        <mxCell id="ODy3n680bHS0tX1lZsI_-28" value="" style="endArrow=none;html=1;rounded=0;exitX=0.5;exitY=0;exitDx=0;exitDy=0;entryX=0.5;entryY=1;entryDx=0;entryDy=0;" edge="1" parent="1" source="ODy3n680bHS0tX1lZsI_-19" target="ODy3n680bHS0tX1lZsI_-13">
          <mxGeometry width="50" height="50" relative="1" as="geometry">
            <mxPoint x="650" y="260" as="sourcePoint" />
            <mxPoint x="700" y="210" as="targetPoint" />
          </mxGeometry>
        </mxCell>
        <mxCell id="ODy3n680bHS0tX1lZsI_-29" value="" style="endArrow=none;html=1;rounded=0;exitX=0.5;exitY=0;exitDx=0;exitDy=0;entryX=0.44;entryY=1.013;entryDx=0;entryDy=0;entryPerimeter=0;" edge="1" parent="1" source="ODy3n680bHS0tX1lZsI_-1" target="ODy3n680bHS0tX1lZsI_-14">
          <mxGeometry width="50" height="50" relative="1" as="geometry">
            <mxPoint x="420" y="220" as="sourcePoint" />
            <mxPoint x="470" y="170" as="targetPoint" />
          </mxGeometry>
        </mxCell>
        <mxCell id="ODy3n680bHS0tX1lZsI_-30" value="" style="endArrow=none;html=1;rounded=0;exitX=0.5;exitY=0;exitDx=0;exitDy=0;entryX=0.669;entryY=1.013;entryDx=0;entryDy=0;entryPerimeter=0;" edge="1" parent="1" source="ODy3n680bHS0tX1lZsI_-13" target="ODy3n680bHS0tX1lZsI_-14">
          <mxGeometry width="50" height="50" relative="1" as="geometry">
            <mxPoint x="420" y="220" as="sourcePoint" />
            <mxPoint x="470" y="170" as="targetPoint" />
          </mxGeometry>
        </mxCell>
        <mxCell id="ODy3n680bHS0tX1lZsI_-31" value="" style="endArrow=none;html=1;rounded=0;exitX=0.5;exitY=0;exitDx=0;exitDy=0;entryX=0.5;entryY=1;entryDx=0;entryDy=0;" edge="1" parent="1" source="ODy3n680bHS0tX1lZsI_-14" target="ODy3n680bHS0tX1lZsI_-2">
          <mxGeometry width="50" height="50" relative="1" as="geometry">
            <mxPoint x="420" y="110" as="sourcePoint" />
            <mxPoint x="470" y="60" as="targetPoint" />
          </mxGeometry>
        </mxCell>
      </root>
    </mxGraphModel>
  </diagram>
</mxfile>
